<svg xmlns="http://www.w3.org/2000/svg" viewBox="0 0 512 512">
  <path fill="#2f5066" d="M56 384c-10-23-4-74 8-139 11-59 32-112 93-128 33-9 67-8 99-8s66-1 99 8c61 16 82 69 93 128 12 65 18 116 8 139-14 34-63 43-91 17l-58-75c-7-9-18-14-29-14h-44c-11 0-22 5-29 14l-58 75c-28 26-77 17-91-17Z"/>
  <path fill="#1f3f54" d="M64 245c11-59 32-112 93-128 33-9 67-8 99-8s66-1 99 8c40 11 63 38 77 73-17-18-40-30-72-39-33-9-67-8-99-8s-66-1-99 8c-61 16-82 69-93 128-7 36-12 68-12 93-10-27-3-74 7-127Z" opacity=".52"/>
  <path fill="#edf4f6" d="M128 208a27 27 0 0 1 54 0v25h25a27 27 0 0 1 0 54h-25v25a27 27 0 0 1-54 0v-25h-25a27 27 0 0 1 0-54h25v-25Z"/>
  <circle cx="310" cy="248" r="27" fill="#ff3b30"/>
  <circle cx="358" cy="296" r="27" fill="#13a8e5"/>
  <circle cx="406" cy="248" r="27" fill="#11d06f"/>
  <circle cx="358" cy="200" r="27" fill="#ffc400"/>
</svg>
